<svg width="146" height="64" viewBox="0 0 146 64" fill="none" xmlns="http://www.w3.org/2000/svg">
<g clip-path="url(#clip0_830_10855)">
<rect y="0.263184" width="145.399" height="63.7366" />
<path d="M16.7087 42.298C15.2005 42.298 13.7388 42.0838 12.3237 41.6553C10.9272 41.2269 9.81929 40.6589 9 39.951L10.2569 37.129C11.0575 37.7623 12.0351 38.2839 13.1895 38.6937C14.3626 39.0848 15.5356 39.2804 16.7087 39.2804C18.1611 39.2804 19.241 39.0475 19.9486 38.5819C20.6748 38.1163 21.0379 37.5016 21.0379 36.7379C21.0379 36.1791 20.833 35.7227 20.4234 35.3688C20.0324 34.9962 19.5296 34.7076 18.9152 34.5027C18.3007 34.2977 17.4628 34.065 16.4015 33.8041C14.9119 33.4503 13.7016 33.0963 12.7706 32.7424C11.8582 32.3886 11.0668 31.839 10.3965 31.0939C9.7448 30.3302 9.41895 29.3058 9.41895 28.0205C9.41895 26.9402 9.70757 25.9623 10.2848 25.0868C10.8806 24.1927 11.7651 23.4849 12.9381 22.9633C14.1298 22.4418 15.5822 22.181 17.2952 22.181C18.4869 22.181 19.66 22.33 20.8144 22.6281C21.9689 22.9261 22.965 23.3545 23.8029 23.9133L22.6578 26.7353C21.8013 26.2324 20.9075 25.8505 19.9765 25.5897C19.0455 25.3289 18.1424 25.1986 17.2673 25.1986C15.8336 25.1986 14.7629 25.4407 14.0553 25.925C13.3664 26.4094 13.0219 27.052 13.0219 27.8529C13.0219 28.4117 13.2174 28.8681 13.6085 29.222C14.0181 29.5758 14.5302 29.8552 15.1446 30.0602C15.7591 30.2651 16.597 30.4978 17.6583 30.7587C19.1107 31.0939 20.3024 31.4478 21.2334 31.8204C22.1644 32.1743 22.9557 32.7238 23.6074 33.4689C24.2777 34.2139 24.6129 35.2197 24.6129 36.4864C24.6129 37.5667 24.315 38.5446 23.7191 39.4201C23.142 40.2956 22.2574 40.9941 21.0658 41.5156C19.8741 42.0371 18.4217 42.298 16.7087 42.298ZM27.8781 27.0985H31.3693V42.0186H27.8781V27.0985ZM29.6377 24.6398C29.0046 24.6398 28.474 24.4442 28.0457 24.053C27.6175 23.6432 27.4033 23.1403 27.4033 22.5442C27.4033 21.9482 27.6175 21.4546 28.0457 21.0634C28.474 20.6536 29.0046 20.4487 29.6377 20.4487C30.2708 20.4487 30.8015 20.6443 31.2297 21.0355C31.658 21.408 31.8721 21.883 31.8721 22.4604C31.8721 23.0751 31.658 23.5967 31.2297 24.0251C30.8201 24.4349 30.2894 24.6398 29.6377 24.6398ZM42.0203 42.298C40.5121 42.298 39.0504 42.0838 37.6353 41.6553C36.2388 41.2269 35.131 40.6589 34.3116 39.951L35.5685 37.129C36.3691 37.7623 37.3466 38.2839 38.5011 38.6937C39.6742 39.0848 40.8473 39.2804 42.0203 39.2804C43.4727 39.2804 44.5526 39.0475 45.2602 38.5819C45.9864 38.1163 46.3495 37.5016 46.3495 36.7379C46.3495 36.1791 46.1446 35.7227 45.735 35.3688C45.344 34.9962 44.8413 34.7076 44.2268 34.5027C43.6123 34.2977 42.7744 34.065 41.7131 33.8041C40.2234 33.4503 39.0132 33.0963 38.0822 32.7424C37.1698 32.3886 36.3784 31.839 35.7081 31.0939C35.0564 30.3302 34.7306 29.3058 34.7306 28.0205C34.7306 26.9402 35.0192 25.9623 35.5964 25.0868C36.1923 24.1927 37.0767 23.4849 38.2498 22.9633C39.4414 22.4418 40.8938 22.181 42.6069 22.181C43.7985 22.181 44.9716 22.33 46.126 22.6281C47.2805 22.9261 48.2767 23.3545 49.1146 23.9133L47.9694 26.7353C47.1129 26.2324 46.2192 25.8505 45.2881 25.5897C44.3571 25.3289 43.4541 25.1986 42.5789 25.1986C41.1451 25.1986 40.0746 25.4407 39.367 25.925C38.6781 26.4094 38.3336 27.052 38.3336 27.8529C38.3336 28.4117 38.5291 28.8681 38.9201 29.222C39.3297 29.5758 39.8418 29.8552 40.4562 30.0602C41.0707 30.2651 41.9086 30.4978 42.9699 30.7587C44.4223 31.0939 45.6139 31.4478 46.545 31.8204C47.476 32.1743 48.2673 32.7238 48.919 33.4689C49.5894 34.2139 49.9245 35.2197 49.9245 36.4864C49.9245 37.5667 49.6267 38.5446 49.0308 39.4201C48.4536 40.2956 47.569 40.9941 46.3774 41.5156C45.1858 42.0371 43.7334 42.298 42.0203 42.298ZM61.9318 42.298C59.2319 42.298 57.1278 41.5436 55.6196 40.0348C54.1114 38.5075 53.3573 36.3281 53.3573 33.4968V22.4604H56.9882V33.3571C56.9882 37.1943 58.6454 39.1128 61.9597 39.1128C65.2555 39.1128 66.9034 37.1943 66.9034 33.3571V22.4604H70.4784V33.4968C70.4784 36.3281 69.7243 38.5075 68.2161 40.0348C66.7266 41.5436 64.6318 42.298 61.9318 42.298Z" fill="black"/>
<path d="M84.0937 22.5497C83.5054 22.5497 82.9356 22.4603 82.3844 22.2815C81.8407 22.0952 81.4124 21.8568 81.0996 21.5662L81.513 20.6945C81.8109 20.9627 82.1907 21.1825 82.6525 21.3539C83.1217 21.5178 83.6021 21.5997 84.0937 21.5997C84.7417 21.5997 85.2259 21.4917 85.5461 21.2756C85.8663 21.0521 86.0265 20.7578 86.0265 20.3927C86.0265 20.1245 85.9371 19.9084 85.7583 19.7445C85.587 19.5731 85.3711 19.4427 85.1104 19.3533C84.8572 19.2639 84.4959 19.1633 84.0267 19.0516C83.4383 18.91 82.9616 18.7685 82.5967 18.6269C82.2392 18.4853 81.9301 18.2693 81.6694 17.9787C81.4162 17.6807 81.2895 17.282 81.2895 16.7828C81.2895 16.3656 81.3975 15.9893 81.6135 15.6541C81.837 15.3188 82.1721 15.0506 82.619 14.8494C83.0659 14.6482 83.6207 14.5476 84.2836 14.5476C84.7455 14.5476 85.1997 14.6072 85.6466 14.7264C86.0935 14.8457 86.4771 15.017 86.7973 15.2405L86.4287 16.1346C86.1009 15.926 85.7509 15.7696 85.3785 15.6652C85.006 15.5535 84.6411 15.4976 84.2836 15.4976C83.6506 15.4976 83.1738 15.6131 82.8536 15.8441C82.5408 16.075 82.3844 16.3731 82.3844 16.7381C82.3844 17.0064 82.4738 17.2262 82.6525 17.3975C82.8313 17.5614 83.0509 17.6918 83.3117 17.7887C83.5798 17.8781 83.9411 17.975 84.3954 18.0793C84.9837 18.2208 85.4567 18.3624 85.8142 18.504C86.1717 18.6455 86.4771 18.8616 86.7303 19.1522C86.991 19.4427 87.1213 19.8339 87.1213 20.3257C87.1213 20.7354 87.0096 21.1117 86.7862 21.4544C86.5627 21.7897 86.2238 22.058 85.7695 22.2591C85.3152 22.4528 84.7566 22.5497 84.0937 22.5497ZM87.9268 16.537H88.9993V22.4603H87.9268V16.537ZM88.4631 15.397C88.2545 15.397 88.0795 15.33 87.938 15.1958C87.8039 15.0617 87.7368 14.8978 87.7368 14.7041C87.7368 14.5104 87.8039 14.3465 87.938 14.2123C88.0795 14.0708 88.2545 14 88.4631 14C88.6716 14 88.8429 14.0671 88.977 14.2012C89.1185 14.3278 89.1893 14.488 89.1893 14.6817C89.1893 14.8829 89.1185 15.0543 88.977 15.1958C88.8429 15.33 88.6716 15.397 88.4631 15.397ZM92.0749 22.5273C91.5908 22.5273 91.1252 22.464 90.6784 22.3374C90.2315 22.2032 89.8815 22.0356 89.6282 21.8344L90.0751 20.985C90.3358 21.1713 90.6524 21.3203 91.0247 21.4321C91.3971 21.5439 91.7732 21.5997 92.1531 21.5997C93.0915 21.5997 93.5607 21.3315 93.5607 20.7951C93.5607 20.6162 93.4975 20.4747 93.3708 20.3704C93.2443 20.266 93.0841 20.1915 92.8904 20.1468C92.7043 20.0947 92.4361 20.0388 92.086 19.9792C91.6094 19.9047 91.2184 19.819 90.913 19.7222C90.6151 19.6253 90.3581 19.4614 90.1421 19.2304C89.9262 18.9994 89.8181 18.6753 89.8181 18.2581C89.8181 17.7216 90.0416 17.2932 90.4884 16.9728C90.9353 16.645 91.535 16.4811 92.2871 16.4811C92.6819 16.4811 93.0767 16.5295 93.4714 16.6264C93.8662 16.7232 94.1902 16.8536 94.4433 17.0175L93.9853 17.8669C93.5013 17.554 92.9315 17.3975 92.276 17.3975C91.8217 17.3975 91.4754 17.472 91.237 17.621C90.9987 17.7701 90.8795 17.9675 90.8795 18.2134C90.8795 18.4071 90.9465 18.5598 91.0806 18.6716C91.2146 18.7834 91.3786 18.8653 91.5721 18.9175C91.7732 18.9696 92.0525 19.0292 92.41 19.0963C92.8868 19.1783 93.2703 19.2677 93.5607 19.3645C93.8588 19.4539 94.112 19.6104 94.3205 19.8339C94.5291 20.0574 94.6333 20.3704 94.6333 20.7727C94.6333 21.3092 94.4024 21.7376 93.9406 22.058C93.4863 22.3709 92.8645 22.5273 92.0749 22.5273ZM98.6326 22.1138C98.4762 22.2479 98.2826 22.3523 98.0516 22.4268C97.8208 22.4938 97.5824 22.5273 97.3366 22.5273C96.7409 22.5273 96.279 22.3672 95.9513 22.0468C95.6237 21.7264 95.4597 21.2682 95.4597 20.6721V17.4199H94.4542V16.537H95.4597V15.2405H96.5322V16.537H98.2304V17.4199H96.5322V20.6274C96.5322 20.9478 96.6104 21.1937 96.7668 21.365C96.9308 21.5364 97.1616 21.6221 97.4595 21.6221C97.7873 21.6221 98.0666 21.5289 98.2974 21.3427L98.6326 22.1138ZM104.414 19.5322C104.414 19.6141 104.407 19.7222 104.392 19.8563H99.5876C99.6547 20.3778 99.8819 20.7988 100.269 21.1192C100.664 21.4321 101.152 21.5886 101.733 21.5886C102.44 21.5886 103.01 21.3501 103.442 20.8733L104.034 21.5662C103.766 21.8791 103.431 22.1176 103.029 22.2815C102.634 22.4454 102.191 22.5273 101.699 22.5273C101.074 22.5273 100.519 22.4007 100.035 22.1474C99.5504 21.8866 99.1743 21.5252 98.9061 21.0633C98.6454 20.6013 98.5151 20.0798 98.5151 19.4986C98.5151 18.9249 98.6418 18.4071 98.895 17.9452C99.1557 17.4832 99.5094 17.1256 99.9563 16.8723C100.411 16.6115 100.921 16.4811 101.487 16.4811C102.053 16.4811 102.556 16.6115 102.995 16.8723C103.442 17.1256 103.788 17.4832 104.034 17.9452C104.287 18.4071 104.414 18.9361 104.414 19.5322ZM101.487 17.3864C100.973 17.3864 100.541 17.5428 100.191 17.8557C99.8484 18.1687 99.6473 18.5785 99.5876 19.0851H103.386C103.326 18.5859 103.122 18.1799 102.772 17.8669C102.429 17.5465 102.001 17.3864 101.487 17.3864ZM112.64 16.4811C113.385 16.4811 113.973 16.6972 114.405 17.1293C114.845 17.5614 115.064 18.2022 115.064 19.0516V22.4603H113.992V19.1745C113.992 18.6008 113.858 18.1687 113.59 17.8781C113.329 17.5875 112.953 17.4422 112.461 17.4422C111.918 17.4422 111.486 17.6136 111.165 17.9563C110.845 18.2916 110.685 18.7759 110.685 19.4092V22.4603H109.612V19.1745C109.612 18.6008 109.478 18.1687 109.21 17.8781C108.95 17.5875 108.573 17.4422 108.082 17.4422C107.538 17.4422 107.106 17.6136 106.786 17.9563C106.466 18.2916 106.306 18.7759 106.306 19.4092V22.4603H105.233V16.537H106.261V17.4199C106.477 17.1144 106.76 16.8834 107.11 16.727C107.46 16.5631 107.858 16.4811 108.305 16.4811C108.767 16.4811 109.177 16.5742 109.534 16.7605C109.892 16.9468 110.167 17.2187 110.361 17.5763C110.584 17.2336 110.893 16.9654 111.288 16.7717C111.69 16.5779 112.141 16.4811 112.64 16.4811ZM118.524 16.4811C119.343 16.4811 119.968 16.6823 120.401 17.0846C120.84 17.4869 121.06 18.0867 121.06 18.8839V22.4603H120.043V21.678C119.864 21.9536 119.607 22.166 119.272 22.315C118.944 22.4566 118.553 22.5273 118.099 22.5273C117.436 22.5273 116.904 22.3672 116.502 22.0468C116.107 21.7264 115.909 21.3054 115.909 20.7839C115.909 20.2623 116.099 19.8451 116.479 19.5322C116.859 19.2118 117.462 19.0516 118.289 19.0516H119.987V18.8392C119.987 18.3773 119.853 18.0234 119.585 17.7775C119.317 17.5316 118.922 17.4087 118.401 17.4087C118.051 17.4087 117.708 17.4683 117.373 17.5875C117.038 17.6993 116.755 17.852 116.524 18.0457L116.077 17.2411C116.382 16.9952 116.747 16.8089 117.172 16.6823C117.596 16.5481 118.047 16.4811 118.524 16.4811ZM118.278 21.7003C118.687 21.7003 119.041 21.6109 119.339 21.4321C119.637 21.2458 119.853 20.985 119.987 20.6498V19.8227H118.334C117.425 19.8227 116.971 20.1282 116.971 20.7392C116.971 21.0372 117.086 21.2719 117.317 21.4433C117.548 21.6146 117.868 21.7003 118.278 21.7003ZM130.29 14.1676V22.4603H129.262V21.5215C129.024 21.8493 128.722 22.0989 128.357 22.2703C127.992 22.4417 127.59 22.5273 127.151 22.5273C126.577 22.5273 126.063 22.4007 125.609 22.1474C125.155 21.894 124.797 21.5401 124.537 21.0856C124.283 20.6237 124.157 20.0947 124.157 19.4986C124.157 18.9026 124.283 18.3773 124.537 17.9228C124.797 17.4683 125.155 17.1144 125.609 16.8611C126.063 16.6078 126.577 16.4811 127.151 16.4811C127.575 16.4811 127.966 16.5631 128.324 16.727C128.681 16.8834 128.979 17.1181 129.218 17.4311V14.1676H130.29ZM127.24 21.5886C127.613 21.5886 127.951 21.5029 128.257 21.3315C128.562 21.1527 128.801 20.9068 128.972 20.5939C129.143 20.2735 129.229 19.9084 129.229 19.4986C129.229 19.0888 129.143 18.7275 128.972 18.4146C128.801 18.0942 128.562 17.8483 128.257 17.6769C127.951 17.5056 127.613 17.4199 127.24 17.4199C126.86 17.4199 126.518 17.5056 126.212 17.6769C125.914 17.8483 125.676 18.0942 125.497 18.4146C125.326 18.7275 125.24 19.0888 125.24 19.4986C125.24 19.9084 125.326 20.2735 125.497 20.5939C125.676 20.9068 125.914 21.1527 126.212 21.3315C126.518 21.5029 126.86 21.5886 127.24 21.5886ZM137.001 19.5322C137.001 19.6141 136.993 19.7222 136.978 19.8563H132.174C132.241 20.3778 132.468 20.7988 132.856 21.1192C133.25 21.4321 133.738 21.5886 134.319 21.5886C135.027 21.5886 135.597 21.3501 136.029 20.8733L136.621 21.5662C136.353 21.8791 136.017 22.1176 135.615 22.2815C135.22 22.4454 134.777 22.5273 134.286 22.5273C133.66 22.5273 133.105 22.4007 132.621 22.1474C132.137 21.8866 131.761 21.5252 131.493 21.0633C131.232 20.6013 131.102 20.0798 131.102 19.4986C131.102 18.9249 131.228 18.4071 131.482 17.9452C131.742 17.4832 132.096 17.1256 132.543 16.8723C132.997 16.6115 133.507 16.4811 134.073 16.4811C134.639 16.4811 135.142 16.6115 135.582 16.8723C136.029 17.1256 136.375 17.4832 136.621 17.9452C136.874 18.4071 137.001 18.9361 137.001 19.5322ZM134.073 17.3864C133.56 17.3864 133.128 17.5428 132.777 17.8557C132.435 18.1687 132.234 18.5785 132.174 19.0851H135.973C135.913 18.5859 135.708 18.1799 135.358 17.8669C135.016 17.5465 134.587 17.3864 134.073 17.3864ZM84.0937 36.5198C83.5054 36.5198 82.9356 36.4304 82.3844 36.2516C81.8407 36.0653 81.4124 35.8269 81.0996 35.5363L81.513 34.6646C81.8109 34.9328 82.1907 35.1525 82.6525 35.324C83.1217 35.4878 83.6021 35.5698 84.0937 35.5698C84.7417 35.5698 85.2259 35.4618 85.5461 35.2457C85.8663 35.0222 86.0265 34.7279 86.0265 34.3628C86.0265 34.0946 85.9371 33.8785 85.7583 33.7146C85.587 33.5432 85.3711 33.4128 85.1104 33.3234C84.8572 33.234 84.4959 33.1334 84.0267 33.0217C83.4383 32.8802 82.9616 32.7385 82.5967 32.597C82.2392 32.4555 81.9301 32.2394 81.6694 31.9488C81.4162 31.6508 81.2895 31.2521 81.2895 30.7529C81.2895 30.3357 81.3975 29.9594 81.6135 29.6242C81.837 29.2889 82.1721 29.0206 82.619 28.8195C83.0659 28.6183 83.6207 28.5177 84.2836 28.5177C84.7455 28.5177 85.1997 28.5774 85.6466 28.6965C86.0935 28.8157 86.4771 28.9871 86.7973 29.2106L86.4287 30.1047C86.1009 29.8962 85.7509 29.7397 85.3785 29.6353C85.006 29.5236 84.6411 29.4677 84.2836 29.4677C83.6506 29.4677 83.1738 29.5832 82.8536 29.8141C82.5408 30.0451 82.3844 30.3432 82.3844 30.7082C82.3844 30.9765 82.4738 31.1962 82.6525 31.3676C82.8313 31.5315 83.0509 31.662 83.3117 31.7588C83.5798 31.8482 83.9411 31.945 84.3954 32.0494C84.9837 32.1909 85.4567 32.3325 85.8142 32.4741C86.1717 32.6156 86.4771 32.8317 86.7303 33.1223C86.991 33.4128 87.1213 33.804 87.1213 34.2958C87.1213 34.7055 87.0096 35.0819 86.7862 35.4245C86.5627 35.7598 86.2238 36.028 85.7695 36.2292C85.3152 36.423 84.7566 36.5198 84.0937 36.5198ZM93.2782 33.5023C93.2782 33.5843 93.2707 33.6922 93.2559 33.8264H88.4519C88.519 34.3479 88.746 34.7689 89.1334 35.0893C89.5281 35.4022 90.016 35.5587 90.597 35.5587C91.3044 35.5587 91.8742 35.3202 92.3063 34.8434L92.8984 35.5363C92.6303 35.8492 92.2951 36.0877 91.8929 36.2516C91.4981 36.4154 91.055 36.4974 90.5634 36.4974C89.9378 36.4974 89.3828 36.3707 88.8988 36.1175C88.4146 35.8566 88.0386 35.4954 87.7704 35.0334C87.5097 34.5714 87.3794 34.0499 87.3794 33.4687C87.3794 32.895 87.5059 32.3772 87.7593 31.9153C88.0198 31.4533 88.3737 31.0956 88.8206 30.8423C89.2749 30.5815 89.785 30.4512 90.3512 30.4512C90.9172 30.4512 91.4199 30.5815 91.8594 30.8423C92.3063 31.0956 92.6526 31.4533 92.8984 31.9153C93.1516 32.3772 93.2782 32.9062 93.2782 33.5023ZM90.3512 31.3564C89.8373 31.3564 89.4052 31.5129 89.0551 31.8258C88.7125 32.1388 88.5114 32.5485 88.4519 33.0552H92.2504C92.1908 32.5561 91.9859 32.1499 91.6359 31.837C91.2932 31.5167 90.8651 31.3564 90.3512 31.3564ZM94.0971 28.1377H95.1697V36.4304H94.0971V28.1377ZM101.899 33.5023C101.899 33.5843 101.891 33.6922 101.876 33.8264H97.0723C97.1393 34.3479 97.3664 34.7689 97.7538 35.0893C98.1484 35.4022 98.6363 35.5587 99.2173 35.5587C99.9248 35.5587 100.495 35.3202 100.927 34.8434L101.519 35.5363C101.251 35.8492 100.915 36.0877 100.513 36.2516C100.118 36.4154 99.6753 36.4974 99.1838 36.4974C98.5581 36.4974 98.0032 36.3707 97.5191 36.1175C97.035 35.8566 96.6589 35.4954 96.3908 35.0334C96.13 34.5714 95.9997 34.0499 95.9997 33.4687C95.9997 32.895 96.1263 32.3772 96.3796 31.9153C96.6402 31.4533 96.9941 31.0956 97.4409 30.8423C97.8952 30.5815 98.4054 30.4512 98.9715 30.4512C99.5375 30.4512 100.04 30.5815 100.48 30.8423C100.927 31.0956 101.273 31.4533 101.519 31.9153C101.772 32.3772 101.899 32.9062 101.899 33.5023ZM98.9715 31.3564C98.4576 31.3564 98.0255 31.5129 97.6755 31.8258C97.3328 32.1388 97.1317 32.5485 97.0723 33.0552H100.871C100.811 32.5561 100.606 32.1499 100.256 31.837C99.9136 31.5167 99.4854 31.3564 98.9715 31.3564ZM105.298 36.4974C104.695 36.4974 104.155 36.3671 103.678 36.1063C103.209 35.8455 102.84 35.4878 102.572 35.0334C102.304 34.5714 102.17 34.0499 102.17 33.4687C102.17 32.8876 102.304 32.3697 102.572 31.9153C102.84 31.4533 103.209 31.0956 103.678 30.8423C104.155 30.5815 104.695 30.4512 105.298 30.4512C105.834 30.4512 106.311 30.5592 106.728 30.7753C107.153 30.9914 107.481 31.3043 107.711 31.7141L106.896 32.2394C106.71 31.9562 106.479 31.7438 106.203 31.6023C105.928 31.4608 105.622 31.39 105.287 31.39C104.9 31.39 104.55 31.4756 104.237 31.647C103.931 31.8184 103.689 32.0643 103.511 32.3846C103.339 32.6976 103.254 33.059 103.254 33.4687C103.254 33.886 103.339 34.2548 103.511 34.5752C103.689 34.8881 103.931 35.1302 104.237 35.3016C104.55 35.473 104.9 35.5587 105.287 35.5587C105.622 35.5587 105.928 35.4878 106.203 35.3463C106.479 35.2048 106.71 34.9924 106.896 34.7093L107.711 35.2234C107.481 35.6331 107.153 35.9498 106.728 36.1733C106.311 36.3895 105.834 36.4974 105.298 36.4974ZM104.773 38.9338C104.386 38.9338 104.054 38.8518 103.779 38.688L104.013 38.1403C104.237 38.267 104.49 38.3303 104.773 38.3303C105.19 38.3303 105.399 38.1813 105.399 37.8833C105.399 37.7492 105.347 37.6412 105.242 37.5592C105.138 37.4847 104.978 37.4474 104.762 37.4474H104.46L104.74 36.3522H105.354L105.186 36.9892C105.499 37.0189 105.738 37.1159 105.902 37.2798C106.073 37.4512 106.158 37.6635 106.158 37.9168C106.158 38.2297 106.032 38.4756 105.779 38.6544C105.525 38.8406 105.19 38.9338 104.773 38.9338ZM110.586 30.4512C111.405 30.4512 112.031 30.6524 112.463 31.0547C112.902 31.457 113.122 32.0568 113.122 32.854V36.4304H112.105V35.6481C111.926 35.9237 111.669 36.136 111.334 36.2851C111.007 36.4266 110.616 36.4974 110.161 36.4974C109.498 36.4974 108.966 36.3372 108.564 36.0169C108.169 35.6965 107.972 35.2755 107.972 34.754C107.972 34.2325 108.161 33.8152 108.541 33.5023C108.921 33.1819 109.524 33.0217 110.351 33.0217H112.049V32.8093C112.049 32.3473 111.915 31.9935 111.647 31.7476C111.379 31.5017 110.984 31.3788 110.463 31.3788C110.113 31.3788 109.77 31.4385 109.435 31.5576C109.1 31.6694 108.817 31.8221 108.586 32.0158L108.139 31.2112C108.445 30.9653 108.809 30.7791 109.234 30.6524C109.659 30.5182 110.109 30.4512 110.586 30.4512ZM110.34 35.6704C110.75 35.6704 111.103 35.581 111.401 35.4022C111.699 35.216 111.915 34.9551 112.049 34.6199V33.7928H110.396C109.487 33.7928 109.033 34.0984 109.033 34.7093C109.033 35.0073 109.148 35.2419 109.379 35.4134C109.61 35.5848 109.93 35.6704 110.34 35.6704ZM111.446 29.613C111.267 29.613 111.111 29.5757 110.977 29.5012C110.85 29.4268 110.69 29.315 110.496 29.1659C110.385 29.0616 110.288 28.9871 110.206 28.9424C110.124 28.8903 110.042 28.8642 109.96 28.8642C109.796 28.8642 109.662 28.9275 109.558 29.0542C109.454 29.1733 109.398 29.341 109.39 29.5571H108.787C108.802 29.1398 108.906 28.8083 109.1 28.5624C109.301 28.3166 109.562 28.1936 109.882 28.1936C110.061 28.1936 110.217 28.2346 110.351 28.3166C110.493 28.391 110.653 28.5028 110.832 28.6518C110.958 28.7562 111.059 28.8344 111.133 28.8865C111.208 28.9312 111.286 28.9536 111.368 28.9536C111.532 28.9536 111.666 28.8939 111.77 28.7748C111.874 28.6556 111.93 28.4916 111.938 28.283H112.541C112.526 28.6854 112.418 29.0095 112.217 29.2553C112.023 29.4938 111.766 29.613 111.446 29.613ZM117.005 36.4974C116.417 36.4974 115.888 36.3671 115.419 36.1063C114.949 35.8455 114.581 35.4878 114.313 35.0334C114.052 34.5714 113.922 34.0499 113.922 33.4687C113.922 32.8876 114.052 32.3697 114.313 31.9153C114.581 31.4533 114.949 31.0956 115.419 30.8423C115.888 30.5815 116.417 30.4512 117.005 30.4512C117.593 30.4512 118.119 30.5815 118.58 30.8423C119.05 31.0956 119.414 31.4533 119.675 31.9153C119.943 32.3697 120.077 32.8876 120.077 33.4687C120.077 34.0499 119.943 34.5714 119.675 35.0334C119.414 35.4878 119.05 35.8455 118.58 36.1063C118.119 36.3671 117.593 36.4974 117.005 36.4974ZM117.005 35.5587C117.385 35.5587 117.724 35.473 118.022 35.3016C118.327 35.1228 118.565 34.8769 118.737 34.564C118.908 34.2436 118.994 33.8785 118.994 33.4687C118.994 33.059 118.908 32.6976 118.737 32.3846C118.565 32.0643 118.327 31.8184 118.022 31.647C117.724 31.4756 117.385 31.39 117.005 31.39C116.625 31.39 116.283 31.4756 115.977 31.647C115.679 31.8184 115.441 32.0643 115.262 32.3846C115.091 32.6976 115.005 33.059 115.005 33.4687C115.005 33.8785 115.091 34.2436 115.262 34.564C115.441 34.8769 115.679 35.1228 115.977 35.3016C116.283 35.473 116.625 35.5587 117.005 35.5587ZM85.0545 50.4899C84.0117 50.4899 83.2 50.1919 82.619 49.5958C82.0381 48.9997 81.7476 48.1429 81.7476 47.0253V42.5772H82.8648V46.9806C82.8648 48.657 83.5984 49.4952 85.0657 49.4952C85.7807 49.4952 86.3281 49.2903 86.708 48.8805C87.0878 48.4632 87.2777 47.83 87.2777 46.9806V42.5772H88.3614V47.0253C88.3614 48.1503 88.071 49.0109 87.49 49.607C86.9091 50.1955 86.0973 50.4899 85.0545 50.4899ZM92.9868 44.4213C93.7391 44.4213 94.335 44.641 94.7743 45.0807C95.2212 45.5128 95.4446 46.1498 95.4446 46.9918V50.4005H94.3721V47.1147C94.3721 46.541 94.2344 46.1089 93.9588 45.8183C93.6832 45.5277 93.2884 45.3824 92.7745 45.3824C92.1936 45.3824 91.7355 45.5538 91.4004 45.8965C91.0652 46.2318 90.8976 46.7161 90.8976 47.3494V50.4005H89.8251V44.4772H90.8529V45.3712C91.069 45.0657 91.3594 44.831 91.7243 44.6672C92.0968 44.5033 92.5176 44.4213 92.9868 44.4213ZM96.7592 44.4772H97.8317V50.4005H96.7592V44.4772ZM97.2954 43.3372C97.0869 43.3372 96.9119 43.2701 96.7703 43.136C96.6363 43.0019 96.5692 42.838 96.5692 42.6443C96.5692 42.4505 96.6363 42.2867 96.7703 42.1525C96.9119 42.011 97.0869 41.9402 97.2954 41.9402C97.5041 41.9402 97.6753 42.0072 97.8093 42.1414C97.9509 42.2681 98.0216 42.4282 98.0216 42.6219C98.0216 42.8231 97.9509 42.9945 97.8093 43.136C97.6753 43.2701 97.5041 43.3372 97.2954 43.3372ZM101.377 42.9237C100.736 42.9237 100.416 43.2701 100.416 43.9631V44.4772H102.136V45.3601H100.438V50.4005H99.3656V45.3601H98.3601V44.4772H99.3656V43.9519C99.3656 43.3633 99.537 42.8976 99.8795 42.5549C100.222 42.2122 100.702 42.0408 101.321 42.0408C101.559 42.0408 101.783 42.0705 101.991 42.1302C102.2 42.1898 102.378 42.2755 102.527 42.3872L102.203 43.2031C101.958 43.0169 101.682 42.9237 101.377 42.9237ZM104.047 44.4772H105.119V50.4005H104.047V44.4772ZM104.583 43.3372C104.374 43.3372 104.199 43.2701 104.058 43.136C103.924 43.0019 103.857 42.838 103.857 42.6443C103.857 42.4505 103.924 42.2867 104.058 42.1525C104.199 42.011 104.374 41.9402 104.583 41.9402C104.791 41.9402 104.963 42.0072 105.097 42.1414C105.238 42.2681 105.309 42.4282 105.309 42.6219C105.309 42.8231 105.238 42.9945 105.097 43.136C104.963 43.2701 104.791 43.3372 104.583 43.3372ZM109.073 50.4675C108.47 50.4675 107.93 50.3372 107.453 50.0764C106.984 49.8156 106.615 49.4579 106.347 49.0035C106.079 48.5415 105.945 48.02 105.945 47.4388C105.945 46.8577 106.079 46.3398 106.347 45.8853C106.615 45.4234 106.984 45.0657 107.453 44.8124C107.93 44.5516 108.47 44.4213 109.073 44.4213C109.609 44.4213 110.086 44.5293 110.503 44.7454C110.928 44.9615 111.255 45.2744 111.486 45.6842L110.671 46.2095C110.485 45.9263 110.254 45.7139 109.978 45.5724C109.703 45.4309 109.397 45.3601 109.062 45.3601C108.675 45.3601 108.325 45.4457 108.012 45.6171C107.706 45.7885 107.464 46.0344 107.286 46.3547C107.114 46.6677 107.029 47.0291 107.029 47.4388C107.029 47.8561 107.114 48.2249 107.286 48.5453C107.464 48.8582 107.706 49.1003 108.012 49.2717C108.325 49.4431 108.675 49.5287 109.062 49.5287C109.397 49.5287 109.703 49.4579 109.978 49.3164C110.254 49.1749 110.485 48.9625 110.671 48.6794L111.486 49.1935C111.255 49.6032 110.928 49.9199 110.503 50.1434C110.086 50.3595 109.609 50.4675 109.073 50.4675ZM114.361 44.4213C115.18 44.4213 115.806 44.6225 116.238 45.0248C116.677 45.4271 116.897 46.0269 116.897 46.8241V50.4005H115.88V49.6182C115.701 49.8938 115.444 50.1061 115.109 50.2552C114.782 50.3967 114.391 50.4675 113.936 50.4675C113.273 50.4675 112.741 50.3073 112.339 49.987C111.944 49.6666 111.746 49.2456 111.746 48.7241C111.746 48.2026 111.936 47.7853 112.316 47.4723C112.696 47.152 113.299 46.9918 114.126 46.9918H115.824V46.7794C115.824 46.3174 115.69 45.9636 115.422 45.7177C115.154 45.4718 114.759 45.3489 114.238 45.3489C113.888 45.3489 113.545 45.4085 113.21 45.5277C112.875 45.6395 112.592 45.7922 112.361 45.9859L111.914 45.1813C112.219 44.9354 112.584 44.7492 113.009 44.6225C113.433 44.4883 113.884 44.4213 114.361 44.4213ZM114.115 49.6405C114.525 49.6405 114.878 49.5511 115.176 49.3723C115.474 49.1861 115.69 48.9252 115.824 48.59V47.7629H114.171C113.262 47.7629 112.808 48.0685 112.808 48.6794C112.808 48.9773 112.923 49.212 113.154 49.3835C113.385 49.5549 113.705 49.6405 114.115 49.6405ZM123.83 42.1078V50.4005H122.802V49.4617C122.564 49.7896 122.262 50.0391 121.897 50.2105C121.532 50.3819 121.13 50.4675 120.691 50.4675C120.117 50.4675 119.603 50.3408 119.149 50.0876C118.695 49.8343 118.337 49.4803 118.076 49.0258C117.823 48.5638 117.697 48.0349 117.697 47.4388C117.697 46.8427 117.823 46.3174 118.076 45.863C118.337 45.4085 118.695 45.0545 119.149 44.8013C119.603 44.548 120.117 44.4213 120.691 44.4213C121.115 44.4213 121.506 44.5033 121.864 44.6672C122.221 44.8236 122.519 45.0583 122.757 45.3712V42.1078H123.83ZM120.78 49.5287C121.152 49.5287 121.491 49.4431 121.797 49.2717C122.102 49.0929 122.34 48.847 122.512 48.5341C122.683 48.2137 122.769 47.8486 122.769 47.4388C122.769 47.0291 122.683 46.6677 122.512 46.3547C122.34 46.0344 122.102 45.7885 121.797 45.6171C121.491 45.4457 121.152 45.3601 120.78 45.3601C120.4 45.3601 120.058 45.4457 119.752 45.6171C119.454 45.7885 119.216 46.0344 119.037 46.3547C118.866 46.6677 118.78 47.0291 118.78 47.4388C118.78 47.8486 118.866 48.2137 119.037 48.5341C119.216 48.847 119.454 49.0929 119.752 49.2717C120.058 49.4431 120.4 49.5287 120.78 49.5287ZM127.345 44.4213C128.164 44.4213 128.79 44.6225 129.222 45.0248C129.661 45.4271 129.881 46.0269 129.881 46.8241V50.4005H128.864V49.6182C128.686 49.8938 128.429 50.1061 128.094 50.2552C127.766 50.3967 127.375 50.4675 126.921 50.4675C126.258 50.4675 125.725 50.3073 125.323 49.987C124.928 49.6666 124.731 49.2456 124.731 48.7241C124.731 48.2026 124.921 47.7853 125.301 47.4723C125.68 47.152 126.284 46.9918 127.11 46.9918H128.809V46.7794C128.809 46.3174 128.675 45.9636 128.406 45.7177C128.138 45.4718 127.744 45.3489 127.222 45.3489C126.872 45.3489 126.53 45.4085 126.194 45.5277C125.859 45.6395 125.576 45.7922 125.345 45.9859L124.898 45.1813C125.204 44.9354 125.569 44.7492 125.993 44.6225C126.418 44.4883 126.868 44.4213 127.345 44.4213ZM127.099 49.6405C127.509 49.6405 127.863 49.5511 128.161 49.3723C128.459 49.1861 128.675 48.9252 128.809 48.59V47.7629H127.155C126.247 47.7629 125.792 48.0685 125.792 48.6794C125.792 48.9773 125.908 49.212 126.139 49.3835C126.37 49.5549 126.69 49.6405 127.099 49.6405Z" fill="black"/>
</g>
<defs>
<clipPath id="clip0_830_10855">
<rect width="145.399" height="63.7366" fill="white" transform="translate(0 0.263184)"/>
</clipPath>
</defs>
</svg>
